<?xml version="1.0" encoding="UTF-8" standalone="no"?>
<!-- Created with Inkscape (http://www.inkscape.org/) -->

<svg
   xmlns:dc="http://purl.org/dc/elements/1.1/"
   xmlns:cc="http://creativecommons.org/ns#"
   xmlns:rdf="http://www.w3.org/1999/02/22-rdf-syntax-ns#"
   xmlns:svg="http://www.w3.org/2000/svg"
   xmlns="http://www.w3.org/2000/svg"
   xmlns:sodipodi="http://sodipodi.sourceforge.net/DTD/sodipodi-0.dtd"
   xmlns:inkscape="http://www.inkscape.org/namespaces/inkscape"
   width="140"
   height="140"
   viewBox="0 0 37.041667 37.041668"
   version="1.1"
   id="svg4667"
   inkscape:version="0.92.3 (2405546, 2018-03-11)"
   sodipodi:docname="icon-square-inkscape.svg">
  <defs
     id="defs4661" />
  <sodipodi:namedview
     id="base"
     pagecolor="#ffffff"
     bordercolor="#666666"
     borderopacity="1.0"
     inkscape:pageopacity="0.0"
     inkscape:pageshadow="2"
     inkscape:zoom="3.959798"
     inkscape:cx="70.124687"
     inkscape:cy="69.223031"
     inkscape:document-units="mm"
     inkscape:current-layer="layer1"
     showgrid="false"
     showguides="true"
     inkscape:guide-bbox="true"
     fit-margin-top="2"
     fit-margin-left="2"
     fit-margin-right="2"
     fit-margin-bottom="2"
     units="px"
     inkscape:window-width="2880"
     inkscape:window-height="1526"
     inkscape:window-x="-11"
     inkscape:window-y="513"
     inkscape:window-maximized="1">
    <sodipodi:guide
       position="0,18.520834"
       orientation="0,1"
       id="guide5993"
       inkscape:locked="false"
       inkscape:label=""
       inkscape:color="rgb(0,0,255)" />
  </sodipodi:namedview>
  <metadata
     id="metadata4664">
    <rdf:RDF>
      <cc:Work
         rdf:about="">
        <dc:format>image/svg+xml</dc:format>
        <dc:type
           rdf:resource="http://purl.org/dc/dcmitype/StillImage" />
        <dc:title></dc:title>
      </cc:Work>
    </rdf:RDF>
  </metadata>
  <g
     inkscape:label="Layer 1"
     inkscape:groupmode="layer"
     id="layer1"
     transform="translate(-33.002515,-105.86808)">
    <g
       id="g5440"
       transform="translate(3.7218732,-4.676998)">
      <path
         inkscape:connector-curvature="0"
         id="path5397-4"
         transform="scale(0.26458333)"
         d="m 177.29297,442.57227 c -24.853,0 -45,20.14699 -45,45 0,24.853 20.147,45 45,45 24.853,0 45,-20.147 45,-45 0,-3.9536 -0.51318,-7.7862 -1.4707,-11.43946 l 5.73046,-1.88672 2.48829,-4.30664 -4.56055,-1.98633 -5.81055,1.91407 c -6.87646,-16.04909 -22.81105,-27.29492 -41.37695,-27.29492 z m -7.39844,8.36132 c 2.64103,0.0245 4.89844,2.23443 4.89844,5.01953 v 21.02735 c 0,0.52199 -0.32247,0.99596 -0.81445,1.16797 -0.04,0.0151 -0.0811,0.0301 -0.1211,0.043 -0.601,0.21883 -1.26673,-0.0344 -1.55273,-0.60743 l -1.14453,-2.29492 c -0.345,-0.69101 -1.22852,-0.90712 -1.85352,-0.45312 l -1.6582,1.20312 c -0.625,0.454 -0.69163,1.36036 -0.14063,1.90235 l 1.82617,1.79882 c 0.455,0.44799 0.49263,1.15811 0.0996,1.66211 -0.0268,0.034 -0.0541,0.0684 -0.0801,0.10352 -0.31601,0.41601 -0.86529,0.57799 -1.36329,0.41602 l -20.09961,-6.53126 c -3.04397,-0.98896 -4.30462,-4.55409 -2.64062,-7.2871 5.154,-8.46599 13.56509,-14.72602 23.49609,-17.04102 0.3875,-0.0904 0.77115,-0.1324 1.14844,-0.12891 z m -25.15234,28.99805 c 0.56066,-0.0163 1.13379,0.0618 1.70117,0.24609 l 20.88086,6.78516 c -0.0121,0.20296 -0.0312,0.40335 -0.0312,0.60938 0,0.12283 0.003,0.24706 0.008,0.36914 0.0291,0.64002 -0.42168,1.19404 -1.05469,1.28906 l -2.5332,0.38086 c -0.764,0.1149 -1.24095,0.88711 -1.00195,1.62109 l 0.63281,1.94922 c 0.23898,0.73501 1.07867,1.0806 1.76367,0.72461 l 2.27149,-1.18164 c 0.569,-0.29594 1.26118,-0.10717 1.61718,0.42578 0.0238,0.0378 0.0492,0.0735 0.0742,0.10938 0.29401,0.42901 0.27556,0.99798 -0.0293,1.41796 l -12.35352,17.00196 c -1.878,2.58497 -5.69911,2.80275 -7.78711,0.38476 -5.674,-6.57003 -9.10742,-15.13018 -9.10742,-24.49218 0,-1.06402 0.0458,-2.11526 0.13281,-3.15625 0.21613,-2.57563 2.38686,-4.41359 4.81641,-4.48438 z m 65.10156,0.002 c 2.42933,0.0706 4.60142,1.906 4.81836,4.48243 0.087,1.04099 0.13086,2.09223 0.13086,3.15625 0,9.362 -3.43342,17.92215 -9.10742,24.49218 -2.088,2.41697 -5.90911,2.19922 -7.78711,-0.38476 l -12.35156,-17 c -0.306,-0.421 -0.3254,-0.98998 -0.0313,-1.41797 0.0249,-0.0378 0.0492,-0.0735 0.0742,-0.10938 0.356,-0.53302 1.04819,-0.72175 1.61719,-0.42578 l 2.27149,1.17969 c 0.685,0.35603 1.52762,0.0117 1.76562,-0.72266 l 0.63281,-1.94921 c 0.23902,-0.73501 -0.23992,-1.50711 -1.0039,-1.6211 l -2.53321,-0.38086 c -0.633,-0.0949 -1.08368,-0.65201 -1.05468,-1.29101 0.005,-0.12322 0.008,-0.24436 0.008,-0.36719 0,-0.13293 -0.0106,-0.26349 -0.0195,-0.39453 l 21.89453,-7.20899 c 0.2263,-0.0239 0.45232,-0.0436 0.67578,-0.0371 z m -35.79102,17.16407 c 0.12521,-0.004 0.25221,0.0118 0.37696,0.0488 0.041,0.0113 0.0811,0.022 0.12304,0.0371 0.61601,0.17386 1.0093,0.77424 0.9043,1.40625 l -0.42187,2.5293 c -0.12601,0.76203 0.46137,1.45508 1.23437,1.45508 h 2.04883 c 0.772,0 1.35942,-0.69305 1.23242,-1.45508 l -0.42187,-2.5293 c -0.105,-0.63201 0.28731,-1.23224 0.90429,-1.40625 0.041,-0.0113 0.082,-0.022 0.12305,-0.0371 0.499,-0.14815 1.0358,0.0459 1.3418,0.4668 l 12.35742,17.00977 c 1.909,2.627 0.83784,6.32617 -2.16016,7.57617 -4.433,1.85 -9.29734,2.87305 -14.40234,2.87305 -5.105,0 -9.96934,-1.02305 -14.40235,-2.87305 -2.99697,-1.25 -4.06815,-4.94917 -2.16015,-7.57617 l 12.35742,-17.00977 c 0.22949,-0.31575 0.58923,-0.50377 0.96484,-0.51562 z"
         style="fill:#080808;fill-opacity:1;stroke:none;stroke-width:0.99999994px;stroke-linecap:butt;stroke-linejoin:miter;stroke-opacity:1" />
      <path
         style="stroke-width:0.26458332"
         inkscape:connector-curvature="0"
         d="m 46.247365,136.27979 c 0,0.36539 0.296069,0.66146 0.661458,0.66146 0.36539,0 0.661459,-0.29607 0.661459,-0.66146 0,-0.36539 -0.661459,-1.32292 -0.661459,-1.32292 0,0 -0.661458,0.95753 -0.661458,1.32292 z"
         id="path4590" />
      <path
         style="stroke-width:0.26458332"
         inkscape:connector-curvature="0"
         d="m 48.449492,134.75394 c 0,0 -0.391054,1.09616 -0.296598,1.44912 0.09446,0.35295 0.4572,0.56224 0.810154,0.46778 0.352955,-0.0944 0.56224,-0.4572 0.467784,-0.81015 -0.09446,-0.35296 -0.98134,-1.10675 -0.98134,-1.10675 z"
         id="path4592" />
      <path
         style="stroke-width:0.26458332"
         inkscape:connector-curvature="0"
         d="m 44.386815,135.86069 c -0.09446,0.35295 0.114829,0.7157 0.467784,0.81015 0.352954,0.0945 0.715697,-0.11483 0.810154,-0.46778 0.09446,-0.35296 -0.296598,-1.44912 -0.296598,-1.44912 0,0 -0.886884,0.75379 -0.98134,1.10675 z"
         id="path4594" />
      <path
         style="stroke-width:0.26458332"
         inkscape:connector-curvature="0"
         d="m 54.033259,130.623 c -0.347398,-0.11298 -1.462617,0.22039 -1.462617,0.22039 0,0 0.706438,0.92499 1.053836,1.03796 0.347397,0.11298 0.720725,-0.0772 0.833437,-0.42465 0.112713,-0.34766 -0.07726,-0.72073 -0.424656,-0.8337 z"
         id="path4596" />
      <path
         style="stroke-width:0.26458332"
         inkscape:connector-curvature="0"
         d="m 54.209471,128.72408 c -0.36486,-0.019 -1.355725,0.59135 -1.355725,0.59135 0,0 0.921544,0.71067 1.286404,0.72972 0.364861,0.019 0.676011,-0.26115 0.695061,-0.62601 0.01905,-0.36486 -0.260879,-0.67601 -0.62574,-0.69506 z"
         id="path4598" />
      <path
         style="stroke-width:0.26458332"
         inkscape:connector-curvature="0"
         d="m 53.371271,132.41184 c -0.306387,-0.19896 -1.46976,-0.16589 -1.46976,-0.16589 0,0 0.442912,1.07633 0.7493,1.27529 0.306387,0.19897 0.715962,0.11192 0.914929,-0.19447 0.198967,-0.30638 0.111919,-0.71596 -0.194469,-0.91493 z"
         id="path4600" />
      <path
         style="stroke-width:0.26458332"
         inkscape:connector-curvature="0"
         d="m 41.247005,130.84339 c 0,0 -1.115219,-0.33311 -1.462617,-0.22039 -0.347398,0.11297 -0.537633,0.48604 -0.424656,0.83343 0.112977,0.3474 0.48604,0.53764 0.833437,0.42466 0.347663,-0.11271 1.053836,-1.0377 1.053836,-1.0377 z"
         id="path4602" />
      <path
         style="stroke-width:0.26458332"
         inkscape:connector-curvature="0"
         d="m 40.446376,132.41184 c -0.306388,0.19897 -0.393436,0.60855 -0.194469,0.91493 0.198967,0.30639 0.608542,0.39344 0.914929,0.19447 0.306388,-0.19896 0.7493,-1.27529 0.7493,-1.27529 0,0 -1.163373,-0.0331 -1.46976,0.16589 z"
         id="path4604" />
      <path
         style="stroke-width:0.26458332"
         inkscape:connector-curvature="0"
         d="m 40.963901,129.31543 c 0,0 -0.990865,-0.6104 -1.355725,-0.59135 -0.364861,0.0191 -0.645054,0.33047 -0.626004,0.69506 0.01905,0.3646 0.330464,0.64506 0.69506,0.62601 0.36486,-0.019 1.286669,-0.72972 1.286669,-0.72972 z"
         id="path4606" />
      <path
         style="stroke-width:0.26458332"
         inkscape:connector-curvature="0"
         d="m 43.409709,124.18754 c 0,0 -0.02778,-1.16364 -0.242358,-1.45918 -0.214842,-0.29554 -0.628386,-0.36116 -0.923925,-0.14632 -0.29554,0.21485 -0.361157,0.62839 -0.146315,0.92393 0.214577,0.2958 1.312598,0.68157 1.312598,0.68157 z"
         id="path4614" />
      <path
         style="stroke-width:0.26458332"
         inkscape:connector-curvature="0"
         d="m 40.837959,124.93895 c 0.283898,0.22993 1.44436,0.31856 1.44436,0.31856 0,0 -0.327818,-1.11681 -0.611716,-1.34646 -0.283898,-0.22966 -0.700352,-0.18601 -0.930275,0.0979 -0.229923,0.2839 -0.186267,0.70009 0.09763,0.93001 z"
         id="path4616" />
      <path
         style="stroke-width:0.26458332"
         inkscape:connector-curvature="0"
         d="m 44.775488,123.44591 c 0,0 0.274373,-1.13109 0.143404,-1.47214 -0.130968,-0.34105 -0.513556,-0.51144 -0.854604,-0.38047 -0.341048,0.13097 -0.511439,0.51355 -0.380471,0.8546 0.130969,0.34105 1.091671,0.99801 1.091671,0.99801 z"
         id="path4618" />
      <rect
         ry="1.4999996"
         rx="1.4999996"
         y="113.7218"
         x="42.17231"
         height="2.811198"
         width="9.4730282"
         id="rect5303"
         style="fill:#000000;fill-opacity:1;stroke:none;stroke-width:0.30000001;stroke-linecap:round;stroke-linejoin:miter;stroke-miterlimit:4;stroke-dasharray:0.60000002, 0.60000002;stroke-dashoffset:0;stroke-opacity:1" />
    </g>
  </g>
</svg>
